<mxfile host="app.diagrams.net" modified="2023-09-12T20:01:39.451Z" agent="Mozilla/5.0 (Windows NT 10.0; Win64; x64) AppleWebKit/537.36 (KHTML, like Gecko) Chrome/115.0.0.0 Safari/537.36 OPR/101.0.0.0" etag="_t6ei7gKIhoR7cG79x8W" version="21.7.4" type="device">
  <diagram name="Página-1" id="X1bjRQrE66h8iQKwzGTC">
    <mxGraphModel dx="1377" dy="747" grid="1" gridSize="10" guides="1" tooltips="1" connect="1" arrows="1" fold="1" page="1" pageScale="1" pageWidth="827" pageHeight="1169" math="0" shadow="0">
      <root>
        <mxCell id="0" />
        <mxCell id="1" parent="0" />
        <mxCell id="MwhVaeeXFOU4bct0Xd6U-1" value="" style="ellipse;html=1;shape=startState;fillColor=#000000;strokeColor=#ff0000;" vertex="1" parent="1">
          <mxGeometry x="130" y="170" width="30" height="30" as="geometry" />
        </mxCell>
        <mxCell id="MwhVaeeXFOU4bct0Xd6U-2" value="" style="edgeStyle=orthogonalEdgeStyle;html=1;verticalAlign=bottom;endArrow=open;endSize=8;strokeColor=#ff0000;rounded=0;entryX=0.5;entryY=0;entryDx=0;entryDy=0;" edge="1" source="MwhVaeeXFOU4bct0Xd6U-1" parent="1" target="MwhVaeeXFOU4bct0Xd6U-3">
          <mxGeometry relative="1" as="geometry">
            <mxPoint x="145" y="260" as="targetPoint" />
          </mxGeometry>
        </mxCell>
        <mxCell id="MwhVaeeXFOU4bct0Xd6U-3" value="Escolher opção de devolução no sistema" style="rounded=1;whiteSpace=wrap;html=1;arcSize=40;fontColor=#000000;fillColor=#ffffc0;strokeColor=#ff0000;" vertex="1" parent="1">
          <mxGeometry x="85" y="270" width="120" height="40" as="geometry" />
        </mxCell>
        <mxCell id="MwhVaeeXFOU4bct0Xd6U-4" value="" style="edgeStyle=orthogonalEdgeStyle;html=1;verticalAlign=bottom;endArrow=open;endSize=8;strokeColor=#ff0000;rounded=0;entryX=0.5;entryY=0;entryDx=0;entryDy=0;" edge="1" source="MwhVaeeXFOU4bct0Xd6U-3" parent="1" target="MwhVaeeXFOU4bct0Xd6U-5">
          <mxGeometry relative="1" as="geometry">
            <mxPoint x="150" y="370" as="targetPoint" />
          </mxGeometry>
        </mxCell>
        <mxCell id="MwhVaeeXFOU4bct0Xd6U-5" value="Inserir ISBN do livro" style="rounded=1;whiteSpace=wrap;html=1;arcSize=40;fontColor=#000000;fillColor=#ffffc0;strokeColor=#ff0000;" vertex="1" parent="1">
          <mxGeometry x="85" y="380" width="120" height="40" as="geometry" />
        </mxCell>
        <mxCell id="MwhVaeeXFOU4bct0Xd6U-6" value="" style="edgeStyle=orthogonalEdgeStyle;html=1;verticalAlign=bottom;endArrow=open;endSize=8;strokeColor=#ff0000;rounded=0;exitX=1;exitY=0.5;exitDx=0;exitDy=0;entryX=0;entryY=0.5;entryDx=0;entryDy=0;" edge="1" source="MwhVaeeXFOU4bct0Xd6U-5" parent="1" target="MwhVaeeXFOU4bct0Xd6U-12">
          <mxGeometry relative="1" as="geometry">
            <mxPoint x="260" y="420" as="targetPoint" />
          </mxGeometry>
        </mxCell>
        <mxCell id="MwhVaeeXFOU4bct0Xd6U-12" value="Livro disponivel?" style="rhombus;whiteSpace=wrap;html=1;fontColor=#000000;fillColor=#ffffc0;strokeColor=#ff0000;" vertex="1" parent="1">
          <mxGeometry x="310" y="380" width="80" height="40" as="geometry" />
        </mxCell>
        <mxCell id="MwhVaeeXFOU4bct0Xd6U-13" value="yes" style="edgeStyle=orthogonalEdgeStyle;html=1;align=left;verticalAlign=bottom;endArrow=open;endSize=8;strokeColor=#ff0000;rounded=0;entryX=0.5;entryY=0;entryDx=0;entryDy=0;" edge="1" source="MwhVaeeXFOU4bct0Xd6U-12" parent="1" target="MwhVaeeXFOU4bct0Xd6U-15">
          <mxGeometry x="-1" relative="1" as="geometry">
            <mxPoint x="490" y="400" as="targetPoint" />
          </mxGeometry>
        </mxCell>
        <mxCell id="MwhVaeeXFOU4bct0Xd6U-14" value="no" style="edgeStyle=orthogonalEdgeStyle;html=1;align=left;verticalAlign=top;endArrow=open;endSize=8;strokeColor=#ff0000;rounded=0;entryX=1;entryY=0.5;entryDx=0;entryDy=0;" edge="1" source="MwhVaeeXFOU4bct0Xd6U-12" parent="1" target="MwhVaeeXFOU4bct0Xd6U-18">
          <mxGeometry x="-1" relative="1" as="geometry">
            <mxPoint x="350" y="480" as="targetPoint" />
            <Array as="points">
              <mxPoint x="350" y="490" />
            </Array>
          </mxGeometry>
        </mxCell>
        <mxCell id="MwhVaeeXFOU4bct0Xd6U-15" value="Realizar devolução" style="rounded=1;whiteSpace=wrap;html=1;arcSize=40;fontColor=#000000;fillColor=#ffffc0;strokeColor=#ff0000;" vertex="1" parent="1">
          <mxGeometry x="414" y="450" width="120" height="40" as="geometry" />
        </mxCell>
        <mxCell id="MwhVaeeXFOU4bct0Xd6U-16" value="" style="edgeStyle=orthogonalEdgeStyle;html=1;verticalAlign=bottom;endArrow=open;endSize=8;strokeColor=#ff0000;rounded=0;exitX=1;exitY=0.5;exitDx=0;exitDy=0;entryX=1;entryY=0.5;entryDx=0;entryDy=0;" edge="1" source="MwhVaeeXFOU4bct0Xd6U-15" parent="1" target="MwhVaeeXFOU4bct0Xd6U-17">
          <mxGeometry relative="1" as="geometry">
            <mxPoint x="474" y="550" as="targetPoint" />
          </mxGeometry>
        </mxCell>
        <mxCell id="MwhVaeeXFOU4bct0Xd6U-17" value="" style="ellipse;html=1;shape=endState;fillColor=#000000;strokeColor=#ff0000;" vertex="1" parent="1">
          <mxGeometry x="490" y="275" width="30" height="30" as="geometry" />
        </mxCell>
        <mxCell id="MwhVaeeXFOU4bct0Xd6U-18" value="Retornar mensagem" style="rounded=1;whiteSpace=wrap;html=1;arcSize=40;fontColor=#000000;fillColor=#ffffc0;strokeColor=#ff0000;" vertex="1" parent="1">
          <mxGeometry x="85" y="470" width="120" height="40" as="geometry" />
        </mxCell>
        <mxCell id="MwhVaeeXFOU4bct0Xd6U-19" value="" style="edgeStyle=orthogonalEdgeStyle;html=1;verticalAlign=bottom;endArrow=open;endSize=8;strokeColor=#ff0000;rounded=0;exitX=0;exitY=0.5;exitDx=0;exitDy=0;entryX=0.5;entryY=1;entryDx=0;entryDy=0;jumpStyle=arc;" edge="1" source="MwhVaeeXFOU4bct0Xd6U-18" parent="1" target="MwhVaeeXFOU4bct0Xd6U-20">
          <mxGeometry relative="1" as="geometry">
            <mxPoint x="40" y="350" as="targetPoint" />
            <Array as="points">
              <mxPoint x="40" y="490" />
              <mxPoint x="40" y="350" />
              <mxPoint x="350" y="350" />
            </Array>
          </mxGeometry>
        </mxCell>
        <mxCell id="MwhVaeeXFOU4bct0Xd6U-20" value="Tentar novamente?" style="rhombus;whiteSpace=wrap;html=1;fontColor=#000000;fillColor=#ffffc0;strokeColor=#ff0000;" vertex="1" parent="1">
          <mxGeometry x="310" y="270" width="80" height="40" as="geometry" />
        </mxCell>
        <mxCell id="MwhVaeeXFOU4bct0Xd6U-21" value="no" style="edgeStyle=orthogonalEdgeStyle;html=1;align=left;verticalAlign=bottom;endArrow=open;endSize=8;strokeColor=#ff0000;rounded=0;entryX=0;entryY=0.5;entryDx=0;entryDy=0;" edge="1" source="MwhVaeeXFOU4bct0Xd6U-20" parent="1" target="MwhVaeeXFOU4bct0Xd6U-17">
          <mxGeometry x="-1" relative="1" as="geometry">
            <mxPoint x="490" y="290" as="targetPoint" />
          </mxGeometry>
        </mxCell>
        <mxCell id="MwhVaeeXFOU4bct0Xd6U-22" value="yes" style="edgeStyle=orthogonalEdgeStyle;html=1;align=left;verticalAlign=top;endArrow=open;endSize=8;strokeColor=#ff0000;rounded=0;exitX=0;exitY=0.5;exitDx=0;exitDy=0;entryX=1;entryY=0.5;entryDx=0;entryDy=0;" edge="1" source="MwhVaeeXFOU4bct0Xd6U-20" parent="1" target="MwhVaeeXFOU4bct0Xd6U-3">
          <mxGeometry x="-0.8095" y="10" relative="1" as="geometry">
            <mxPoint x="350" y="370" as="targetPoint" />
            <mxPoint as="offset" />
          </mxGeometry>
        </mxCell>
      </root>
    </mxGraphModel>
  </diagram>
</mxfile>
